<svg width="224" height="45" viewBox="0 0 224 45" fill="none" xmlns="http://www.w3.org/2000/svg">
<path fill-rule="evenodd" clip-rule="evenodd" d="M13.2083 7.3212C13.2083 7.3212 12.373 12.2286 14.2576 15.6284C16.1421 19.0282 20.7465 20.9204 20.7465 20.9204C20.7465 20.9204 21.5818 16.013 19.6973 12.6132C17.8127 9.21337 13.2083 7.3212 13.2083 7.3212ZM30.8154 7.93629C30.8154 7.93629 26.0902 9.50266 23.9731 12.7627C21.856 16.0228 22.347 20.9765 22.347 20.9765C22.347 20.9765 27.0721 19.4101 29.1892 16.1501C31.3063 12.89 30.8154 7.93629 30.8154 7.93629ZM13.811 28.411C15.9281 25.1509 20.6533 23.5845 20.6533 23.5845C20.6533 23.5845 21.1442 28.5383 19.0271 31.7983C16.91 35.0584 12.1849 36.6248 12.1849 36.6248C12.1849 36.6248 11.6939 31.671 13.811 28.411ZM38.5935 22.8775C38.5935 22.8775 34.8172 19.634 30.9324 19.4983C27.0476 19.3627 23.0542 22.3348 23.0542 22.3348C23.0542 22.3348 26.8305 25.5783 30.7153 25.714C34.6001 25.8497 38.5935 22.8775 38.5935 22.8775ZM12.2851 18.8471C16.1699 18.9828 19.9462 22.2263 19.9462 22.2263C19.9462 22.2263 15.9528 25.1985 12.068 25.0628C8.18322 24.9272 4.40694 21.6837 4.40694 21.6837C4.40694 21.6837 8.40028 18.7115 12.2851 18.8471ZM22.2539 23.6404C22.2539 23.6404 21.4186 28.5478 23.3032 31.9476C25.1877 35.3474 29.7921 37.2396 29.7921 37.2396C29.7921 37.2396 30.6274 32.3322 28.7429 28.9324C26.8583 25.5326 22.2539 23.6404 22.2539 23.6404Z" fill="#5CC8F4"/>
<mask id="path-2-outside-1" maskUnits="userSpaceOnUse" x="3.39893" y="2.17603" width="36" height="40" fill="black">
<rect fill="white" x="3.39893" y="2.17603" width="36" height="40"/>
<path fill-rule="evenodd" clip-rule="evenodd" d="M21.5004 5.17603C21.5004 5.17603 18.3907 9.0632 18.3907 12.9504C18.3907 16.8375 21.5004 20.7247 21.5004 20.7247C21.5004 20.7247 24.6102 16.8375 24.6102 12.9504C24.6102 9.0632 21.5004 5.17603 21.5004 5.17603ZM36.6021 14.2502C36.6021 14.2502 31.71 13.3294 28.2778 15.1543C24.8457 16.9792 22.8734 21.5499 22.8734 21.5499C22.8734 21.5499 27.7655 22.4707 31.1977 20.6458C34.6299 18.8209 36.6021 14.2502 36.6021 14.2502ZM11.8033 23.9137C15.2355 22.0888 20.1276 23.0096 20.1276 23.0096C20.1276 23.0096 18.1554 27.5803 14.7232 29.4052C11.291 31.2301 6.39893 30.3093 6.39893 30.3093C6.39893 30.3093 8.37116 25.7386 11.8033 23.9137ZM36.161 31.0886C36.161 31.0886 34.4307 26.421 31.0988 24.4189C27.7668 22.4169 22.8332 23.0804 22.8332 23.0804C22.8332 23.0804 24.5635 27.748 27.8955 29.7501C31.2275 31.7521 36.161 31.0886 36.161 31.0886ZM15.1056 14.8089C18.4376 16.8109 20.1679 21.4785 20.1679 21.4785C20.1679 21.4785 15.2343 22.1421 11.9024 20.14C8.57039 18.138 6.84007 13.4704 6.84007 13.4704C6.84007 13.4704 11.7737 12.8069 15.1056 14.8089ZM21.5004 23.8344C21.5004 23.8344 18.3907 27.7216 18.3907 31.6088C18.3907 35.496 21.5004 39.3831 21.5004 39.3831C21.5004 39.3831 24.6102 35.496 24.6102 31.6088C24.6102 27.7216 21.5004 23.8344 21.5004 23.8344Z"/>
</mask>
<path fill-rule="evenodd" clip-rule="evenodd" d="M21.5004 5.17603C21.5004 5.17603 18.3907 9.0632 18.3907 12.9504C18.3907 16.8375 21.5004 20.7247 21.5004 20.7247C21.5004 20.7247 24.6102 16.8375 24.6102 12.9504C24.6102 9.0632 21.5004 5.17603 21.5004 5.17603ZM36.6021 14.2502C36.6021 14.2502 31.71 13.3294 28.2778 15.1543C24.8457 16.9792 22.8734 21.5499 22.8734 21.5499C22.8734 21.5499 27.7655 22.4707 31.1977 20.6458C34.6299 18.8209 36.6021 14.2502 36.6021 14.2502ZM11.8033 23.9137C15.2355 22.0888 20.1276 23.0096 20.1276 23.0096C20.1276 23.0096 18.1554 27.5803 14.7232 29.4052C11.291 31.2301 6.39893 30.3093 6.39893 30.3093C6.39893 30.3093 8.37116 25.7386 11.8033 23.9137ZM36.161 31.0886C36.161 31.0886 34.4307 26.421 31.0988 24.4189C27.7668 22.4169 22.8332 23.0804 22.8332 23.0804C22.8332 23.0804 24.5635 27.748 27.8955 29.7501C31.2275 31.7521 36.161 31.0886 36.161 31.0886ZM15.1056 14.8089C18.4376 16.8109 20.1679 21.4785 20.1679 21.4785C20.1679 21.4785 15.2343 22.1421 11.9024 20.14C8.57039 18.138 6.84007 13.4704 6.84007 13.4704C6.84007 13.4704 11.7737 12.8069 15.1056 14.8089ZM21.5004 23.8344C21.5004 23.8344 18.3907 27.7216 18.3907 31.6088C18.3907 35.496 21.5004 39.3831 21.5004 39.3831C21.5004 39.3831 24.6102 35.496 24.6102 31.6088C24.6102 27.7216 21.5004 23.8344 21.5004 23.8344Z" fill="#218DF7"/>
<path d="M21.5004 5.17603L22.6717 4.23898L21.5004 2.77485L20.3291 4.23898L21.5004 5.17603ZM21.5004 20.7247L20.3291 21.6618L21.5004 23.1259L22.6717 21.6618L21.5004 20.7247ZM28.2778 15.1543L28.9821 16.4787L28.2778 15.1543ZM36.6021 14.2502L37.9794 14.8445L38.7222 13.1229L36.8796 12.7761L36.6021 14.2502ZM22.8734 21.5499L21.4962 20.9556L20.7533 22.6772L22.596 23.024L22.8734 21.5499ZM31.1977 20.6458L31.9019 21.9702H31.9019L31.1977 20.6458ZM20.1276 23.0096L21.5049 23.6039L22.2477 21.8823L20.4051 21.5355L20.1276 23.0096ZM11.8033 23.9137L11.0991 22.5893L11.8033 23.9137ZM14.7232 29.4052L14.019 28.0808L14.7232 29.4052ZM6.39893 30.3093L5.02167 29.715L4.27882 31.4366L6.12146 31.7834L6.39893 30.3093ZM31.0988 24.4189L30.3262 25.7047H30.3262L31.0988 24.4189ZM36.161 31.0886L36.361 32.5752L38.2193 32.3253L37.5675 30.5672L36.161 31.0886ZM22.8332 23.0804L22.6333 21.5938L20.775 21.8437L21.4268 23.6018L22.8332 23.0804ZM20.1679 21.4785L20.3678 22.9652L22.2261 22.7152L21.5744 20.9572L20.1679 21.4785ZM15.1056 14.8089L15.8782 13.5232V13.5231L15.1056 14.8089ZM11.9024 20.14L12.6749 18.8543H12.6749L11.9024 20.14ZM6.84007 13.4704L6.64013 11.9838L4.78187 12.2337L5.4336 13.9918L6.84007 13.4704ZM21.5004 23.8344L22.6717 22.8974L21.5004 21.4333L20.3291 22.8974L21.5004 23.8344ZM21.5004 39.3831L20.3291 40.3202L21.5004 41.7843L22.6717 40.3202L21.5004 39.3831ZM19.8907 12.9504C19.8907 11.3691 20.5367 9.68472 21.2691 8.31139C21.6262 7.64183 21.9842 7.08245 22.2516 6.69243C22.3849 6.49805 22.4946 6.34743 22.5687 6.24808C22.6058 6.19844 22.6339 6.16173 22.6516 6.13889C22.6604 6.12747 22.6667 6.11953 22.6701 6.11518C22.6718 6.11301 22.6728 6.11174 22.6731 6.11138C22.6732 6.1112 22.6732 6.11125 22.673 6.11153C22.6729 6.11167 22.6727 6.11187 22.6725 6.11213C22.6724 6.11225 22.6722 6.11249 22.6722 6.11255C22.672 6.1128 22.6717 6.11307 21.5004 5.17603C20.3291 4.23898 20.3289 4.23928 20.3287 4.23959C20.3286 4.23971 20.3283 4.24003 20.3281 4.24028C20.3277 4.24077 20.3273 4.24133 20.3268 4.24194C20.3258 4.24316 20.3246 4.24463 20.3233 4.24633C20.3206 4.24974 20.3171 4.25411 20.313 4.25941C20.3046 4.27001 20.2934 4.28437 20.2794 4.30237C20.2516 4.33836 20.2129 4.38896 20.1649 4.45321C20.069 4.58162 19.9357 4.76506 19.7775 4.99584C19.4618 5.45613 19.0424 6.11149 18.622 6.89963C17.7996 8.44167 16.8907 10.6445 16.8907 12.9504H19.8907ZM21.5004 20.7247C22.6717 19.7877 22.672 19.7879 22.6722 19.7882C22.6722 19.7882 22.6724 19.7885 22.6725 19.7886C22.6727 19.7889 22.6729 19.7891 22.673 19.7892C22.6732 19.7895 22.6732 19.7895 22.6731 19.7894C22.6728 19.789 22.6718 19.7877 22.6701 19.7856C22.6667 19.7812 22.6604 19.7733 22.6516 19.7618C22.6339 19.739 22.6058 19.7023 22.5687 19.6527C22.4946 19.5533 22.3849 19.4027 22.2516 19.2083C21.9842 18.8183 21.6262 18.2589 21.2691 17.5893C20.5367 16.216 19.8907 14.5317 19.8907 12.9504H16.8907C16.8907 15.2562 17.7996 17.4591 18.622 19.0011C19.0424 19.7892 19.4618 20.4446 19.7775 20.9049C19.9357 21.1357 20.069 21.3191 20.1649 21.4475C20.2129 21.5118 20.2516 21.5624 20.2794 21.5984C20.2934 21.6164 20.3046 21.6307 20.313 21.6413C20.3171 21.6466 20.3206 21.651 20.3233 21.6544C20.3246 21.6561 20.3258 21.6576 20.3268 21.6588C20.3273 21.6594 20.3277 21.66 20.3281 21.6605C20.3283 21.6607 20.3286 21.661 20.3287 21.6611C20.3289 21.6615 20.3291 21.6618 21.5004 20.7247ZM23.1102 12.9504C23.1102 14.5317 22.4642 16.216 21.7318 17.5893C21.3747 18.2589 21.0167 18.8183 20.7492 19.2083C20.616 19.4027 20.5063 19.5533 20.4321 19.6527C20.3951 19.7023 20.367 19.739 20.3493 19.7618C20.3404 19.7733 20.3342 19.7812 20.3308 19.7856C20.3291 19.7877 20.3281 19.789 20.3278 19.7894C20.3276 19.7895 20.3277 19.7895 20.3279 19.7892C20.328 19.7891 20.3282 19.7889 20.3284 19.7886C20.3285 19.7885 20.3287 19.7882 20.3287 19.7882C20.3289 19.7879 20.3291 19.7877 21.5004 20.7247C22.6717 21.6618 22.672 21.6615 22.6722 21.6611C22.6723 21.661 22.6726 21.6607 22.6728 21.6605C22.6732 21.66 22.6736 21.6594 22.6741 21.6588C22.6751 21.6576 22.6762 21.6561 22.6776 21.6544C22.6803 21.651 22.6838 21.6466 22.6879 21.6413C22.6963 21.6307 22.7075 21.6164 22.7215 21.5984C22.7493 21.5624 22.788 21.5118 22.836 21.4475C22.9319 21.3191 23.0652 21.1357 23.2234 20.9049C23.5391 20.4446 23.9585 19.7892 24.3788 19.0011C25.2013 17.4591 26.1102 15.2562 26.1102 12.9504H23.1102ZM21.5004 5.17603C20.3291 6.11307 20.3289 6.1128 20.3287 6.11255C20.3287 6.11249 20.3285 6.11225 20.3284 6.11213C20.3282 6.11187 20.328 6.11167 20.3279 6.11153C20.3277 6.11125 20.3276 6.1112 20.3278 6.11138C20.3281 6.11174 20.3291 6.11301 20.3308 6.11518C20.3342 6.11953 20.3404 6.12747 20.3493 6.13889C20.367 6.16173 20.3951 6.19844 20.4321 6.24808C20.5063 6.34743 20.616 6.49805 20.7492 6.69243C21.0167 7.08245 21.3747 7.64183 21.7318 8.31139C22.4642 9.68472 23.1102 11.3691 23.1102 12.9504H26.1102C26.1102 10.6445 25.2013 8.44167 24.3788 6.89963C23.9585 6.11149 23.5391 5.45613 23.2234 4.99584C23.0652 4.76506 22.9319 4.58162 22.836 4.45321C22.788 4.38896 22.7493 4.33836 22.7215 4.30237C22.7075 4.28437 22.6963 4.27001 22.6879 4.25941C22.6838 4.25411 22.6803 4.24974 22.6776 4.24633C22.6762 4.24463 22.6751 4.24316 22.6741 4.24194C22.6736 4.24133 22.6732 4.24077 22.6728 4.24028C22.6726 4.24003 22.6723 4.23971 22.6722 4.23959C22.672 4.23928 22.6717 4.23898 21.5004 5.17603ZM28.9821 16.4787C30.3783 15.7364 32.1687 15.516 33.7251 15.5179C34.484 15.5189 35.1459 15.5724 35.6159 15.6254C35.8501 15.6518 36.0345 15.6779 36.1571 15.6968C36.2183 15.7062 36.2639 15.7138 36.2924 15.7187C36.3066 15.7211 36.3166 15.7229 36.322 15.7239C36.3247 15.7244 36.3263 15.7247 36.3268 15.7247C36.327 15.7248 36.3269 15.7248 36.3266 15.7247C36.3264 15.7247 36.3262 15.7246 36.3258 15.7246C36.3257 15.7245 36.3254 15.7245 36.3253 15.7245C36.325 15.7244 36.3247 15.7243 36.6021 14.2502C36.8796 12.7761 36.8792 12.776 36.8788 12.776C36.8787 12.7759 36.8783 12.7759 36.878 12.7758C36.8773 12.7757 36.8766 12.7756 36.8759 12.7754C36.8743 12.7751 36.8725 12.7748 36.8703 12.7744C36.8661 12.7736 36.8606 12.7726 36.854 12.7714C36.8407 12.769 36.8227 12.7658 36.8003 12.762C36.7554 12.7543 36.6926 12.7439 36.6133 12.7317C36.4549 12.7073 36.2304 12.6757 35.9523 12.6443C35.3977 12.5817 34.6222 12.5191 33.7289 12.5179C31.9813 12.5157 29.6096 12.7474 27.5736 13.8299L28.9821 16.4787ZM22.8734 21.5499C24.2507 22.1442 24.2506 22.1445 24.2504 22.1448C24.2504 22.1449 24.2503 22.1451 24.2502 22.1453C24.2501 22.1456 24.25 22.1458 24.2499 22.146C24.2498 22.1463 24.2497 22.1464 24.2498 22.1462C24.25 22.1457 24.2507 22.1443 24.2518 22.1417C24.254 22.1367 24.2581 22.1274 24.264 22.1143C24.2759 22.0879 24.2951 22.0459 24.3215 21.9898C24.3744 21.8777 24.456 21.7102 24.565 21.5013C24.7838 21.082 25.1097 20.5033 25.5332 19.8737C26.4019 18.5822 27.5858 17.2211 28.9821 16.4787L27.5736 13.8299C25.5377 14.9124 24.0194 16.7491 23.044 18.1992C22.5454 18.9404 22.1637 19.6184 21.9055 20.1132C21.776 20.3612 21.6766 20.5651 21.6082 20.71C21.574 20.7825 21.5475 20.8405 21.5288 20.882C21.5195 20.9027 21.5121 20.9194 21.5066 20.9317C21.5039 20.9379 21.5017 20.943 21.4999 20.947C21.4991 20.949 21.4983 20.9507 21.4977 20.9521C21.4974 20.9529 21.4971 20.9535 21.4968 20.9541C21.4967 20.9544 21.4966 20.9548 21.4965 20.9549C21.4963 20.9553 21.4962 20.9556 22.8734 21.5499ZM30.4935 19.3214C29.0973 20.0638 27.3069 20.2842 25.7504 20.2822C24.9916 20.2812 24.3296 20.2278 23.8597 20.1747C23.6255 20.1483 23.441 20.1222 23.3185 20.1033C23.2572 20.0939 23.2116 20.0863 23.1832 20.0814C23.1689 20.079 23.159 20.0772 23.1536 20.0762C23.1508 20.0758 23.1492 20.0755 23.1488 20.0754C23.1486 20.0753 23.1486 20.0754 23.149 20.0754C23.1492 20.0755 23.1494 20.0755 23.1497 20.0756C23.1499 20.0756 23.1502 20.0756 23.1503 20.0757C23.1506 20.0757 23.1509 20.0758 22.8734 21.5499C22.596 23.024 22.5963 23.0241 22.5967 23.0242C22.5969 23.0242 22.5973 23.0243 22.5976 23.0243C22.5982 23.0244 22.5989 23.0246 22.5997 23.0247C22.6012 23.025 22.6031 23.0253 22.6052 23.0257C22.6095 23.0265 22.615 23.0275 22.6216 23.0287C22.6349 23.0311 22.6528 23.0343 22.6753 23.0381C22.7201 23.0458 22.783 23.0563 22.8622 23.0684C23.0206 23.0928 23.2452 23.1244 23.5232 23.1558C24.0778 23.2184 24.8534 23.2811 25.7466 23.2822C27.4943 23.2844 29.866 23.0528 31.9019 21.9702L30.4935 19.3214ZM36.6021 14.2502C35.2249 13.6559 35.225 13.6556 35.2251 13.6553C35.2252 13.6553 35.2253 13.655 35.2253 13.6548C35.2255 13.6545 35.2256 13.6543 35.2256 13.6541C35.2258 13.6538 35.2258 13.6538 35.2257 13.654C35.2255 13.6544 35.2249 13.6559 35.2238 13.6584C35.2215 13.6635 35.2175 13.6727 35.2115 13.6858C35.1997 13.7122 35.1804 13.7542 35.154 13.8103C35.1011 13.9224 35.0196 14.0899 34.9105 14.2989C34.6917 14.7181 34.3659 15.2968 33.9424 15.9265C33.0736 17.2179 31.8897 18.579 30.4935 19.3214L31.9019 21.9702C33.9379 20.8877 35.4562 19.051 36.4316 17.6009C36.9301 16.8597 37.3119 16.1817 37.5701 15.6869C37.6996 15.4389 37.799 15.235 37.8673 15.0901C37.9015 15.0176 37.928 14.9597 37.9467 14.9182C37.9561 14.8974 37.9635 14.8807 37.9689 14.8684C37.9717 14.8622 37.9739 14.8571 37.9756 14.8531C37.9765 14.8511 37.9772 14.8494 37.9779 14.848C37.9782 14.8473 37.9785 14.8466 37.9787 14.846C37.9788 14.8457 37.979 14.8454 37.9791 14.8452C37.9792 14.8449 37.9794 14.8445 36.6021 14.2502ZM20.1276 23.0096C20.4051 21.5355 20.4047 21.5354 20.4043 21.5354C20.4042 21.5353 20.4037 21.5352 20.4034 21.5352C20.4028 21.5351 20.4021 21.5349 20.4013 21.5348C20.3998 21.5345 20.398 21.5342 20.3958 21.5338C20.3915 21.533 20.3861 21.532 20.3794 21.5308C20.3662 21.5284 20.3482 21.5252 20.3258 21.5214C20.2809 21.5137 20.2181 21.5032 20.1388 21.4911C19.9804 21.4667 19.7559 21.4351 19.4778 21.4037C18.9232 21.3411 18.1476 21.2784 17.2544 21.2773C15.5068 21.2751 13.1351 21.5067 11.0991 22.5893L12.5075 25.2381C13.9037 24.4958 15.6942 24.2753 17.2506 24.2773C18.0095 24.2783 18.6714 24.3317 19.1414 24.3848C19.3756 24.4112 19.56 24.4373 19.6826 24.4562C19.7438 24.4656 19.7894 24.4732 19.8179 24.4781C19.8321 24.4805 19.842 24.4823 19.8475 24.4833C19.8502 24.4837 19.8518 24.484 19.8523 24.4841C19.8525 24.4842 19.8524 24.4842 19.8521 24.4841C19.8519 24.4841 19.8516 24.484 19.8513 24.4839C19.8512 24.4839 19.8509 24.4839 19.8508 24.4838C19.8505 24.4838 19.8501 24.4837 20.1276 23.0096ZM15.4274 30.7296C17.4634 29.6471 18.9816 27.8104 19.9571 26.3603C20.4556 25.6191 20.8374 24.9411 21.0956 24.4463C21.2251 24.1983 21.3244 23.9944 21.3928 23.8495C21.427 23.777 21.4535 23.719 21.4722 23.6775C21.4816 23.6568 21.489 23.6401 21.4944 23.6278C21.4971 23.6216 21.4994 23.6165 21.5011 23.6125C21.502 23.6105 21.5027 23.6088 21.5034 23.6074C21.5037 23.6066 21.5039 23.606 21.5042 23.6054C21.5043 23.6051 21.5045 23.6047 21.5045 23.6046C21.5047 23.6042 21.5049 23.6039 20.1276 23.0096C18.7503 22.4153 18.7505 22.415 18.7506 22.4147C18.7506 22.4146 18.7508 22.4144 18.7508 22.4142C18.751 22.4139 18.7511 22.4137 18.7511 22.4135C18.7513 22.4132 18.7513 22.4131 18.7512 22.4133C18.751 22.4138 18.7504 22.4153 18.7493 22.4178C18.747 22.4228 18.7429 22.4321 18.737 22.4452C18.7251 22.4716 18.7059 22.5136 18.6795 22.5697C18.6266 22.6818 18.5451 22.8493 18.436 23.0582C18.2172 23.4775 17.8914 24.0562 17.4678 24.6858C16.5991 25.9773 15.4152 27.3384 14.019 28.0808L15.4274 30.7296ZM6.39893 30.3093C6.12146 31.7834 6.12183 31.7835 6.12222 31.7835C6.12237 31.7836 6.12278 31.7836 6.12309 31.7837C6.12371 31.7838 6.12441 31.7839 6.12518 31.7841C6.12672 31.7844 6.12856 31.7847 6.1307 31.7851C6.13498 31.7859 6.14045 31.7869 6.14709 31.7881C6.16037 31.7905 6.17833 31.7937 6.20076 31.7975C6.24563 31.8052 6.30847 31.8156 6.38772 31.8278C6.54611 31.8522 6.77067 31.8838 7.04873 31.9152C7.60332 31.9778 8.37889 32.0404 9.2721 32.0416C11.0198 32.0438 13.3914 31.8121 15.4274 30.7296L14.019 28.0808C12.6228 28.8231 10.8323 29.0435 9.2759 29.0416C8.51706 29.0406 7.8551 28.9871 7.38516 28.9341C7.15096 28.9077 6.96651 28.8816 6.84396 28.8627C6.78273 28.8533 6.73712 28.8457 6.70865 28.8408C6.69441 28.8384 6.68448 28.8366 6.67904 28.8356C6.67632 28.8351 6.67472 28.8348 6.67427 28.8348C6.67404 28.8347 6.67411 28.8347 6.67446 28.8348C6.67464 28.8348 6.67488 28.8349 6.67521 28.8349C6.67537 28.835 6.67566 28.835 6.67574 28.835C6.67606 28.8351 6.67639 28.8352 6.39893 30.3093ZM11.0991 22.5893C9.06316 23.6718 7.54489 25.5085 6.56945 26.9586C6.07091 27.6998 5.68917 28.3778 5.43094 28.8726C5.30146 29.1206 5.20208 29.3245 5.13372 29.4694C5.09951 29.5419 5.073 29.5998 5.0543 29.6413C5.04495 29.6621 5.03755 29.6788 5.03211 29.6911C5.02939 29.6973 5.02715 29.7024 5.02542 29.7064C5.02455 29.7084 5.0238 29.7101 5.02317 29.7115C5.02286 29.7122 5.02258 29.7129 5.02233 29.7135C5.02221 29.7138 5.02204 29.7141 5.02198 29.7143C5.02182 29.7146 5.02167 29.715 6.39893 30.3093C7.77618 30.9036 7.77604 30.9039 7.77592 30.9042C7.77589 30.9042 7.77577 30.9045 7.7757 30.9047C7.77557 30.905 7.77547 30.9052 7.7754 30.9054C7.77526 30.9057 7.77523 30.9058 7.77532 30.9055C7.7755 30.9051 7.77615 30.9036 7.77727 30.9011C7.7795 30.896 7.78359 30.8868 7.78952 30.8737C7.80139 30.8473 7.8206 30.8053 7.84703 30.7492C7.89993 30.6371 7.98144 30.4696 8.09049 30.2606C8.30931 29.8414 8.63514 29.2627 9.05868 28.6331C9.9274 27.3416 11.1113 25.9805 12.5075 25.2381L11.0991 22.5893ZM30.3262 25.7047C31.6817 26.5191 32.7927 27.9403 33.5927 29.2755C33.9827 29.9264 34.2778 30.5214 34.4743 30.9515C34.5723 31.1658 34.6449 31.3374 34.6919 31.4521C34.7154 31.5095 34.7323 31.5525 34.7428 31.5794C34.7481 31.5929 34.7517 31.6023 34.7536 31.6075C34.7546 31.61 34.7552 31.6116 34.7553 31.612C34.7554 31.6122 34.7554 31.6122 34.7553 31.6118C34.7552 31.6116 34.7551 31.6114 34.755 31.6111C34.7549 31.6109 34.7548 31.6107 34.7548 31.6106C34.7547 31.6103 34.7546 31.61 36.161 31.0886C37.5675 30.5672 37.5674 30.5668 37.5672 30.5665C37.5672 30.5663 37.567 30.5659 37.5669 30.5656C37.5667 30.565 37.5665 30.5644 37.5662 30.5636C37.5656 30.5622 37.565 30.5604 37.5642 30.5584C37.5627 30.5543 37.5607 30.5491 37.5583 30.5428C37.5536 30.5302 37.547 30.5132 37.5388 30.4919C37.5223 30.4495 37.4988 30.3903 37.4685 30.3161C37.4078 30.1678 37.3192 29.959 37.2029 29.7045C36.9709 29.1969 36.6252 28.4998 36.1661 27.7336C35.2679 26.2344 33.8478 24.3208 31.8713 23.1332L30.3262 25.7047ZM22.8332 23.0804C23.0332 24.567 23.0328 24.5671 23.0325 24.5671C23.0324 24.5671 23.0321 24.5672 23.032 24.5672C23.0316 24.5672 23.0314 24.5673 23.0312 24.5673C23.0309 24.5673 23.0308 24.5673 23.031 24.5673C23.0315 24.5673 23.0331 24.567 23.0358 24.5667C23.0413 24.566 23.0513 24.5648 23.0657 24.5631C23.0944 24.5597 23.1403 24.5545 23.2019 24.5483C23.3253 24.5359 23.5109 24.5195 23.7461 24.5053C24.2182 24.477 24.8821 24.4582 25.6399 24.497C27.1943 24.5764 28.9708 24.8903 30.3262 25.7047L31.8713 23.1332C29.8948 21.9456 27.5385 21.5901 25.7931 21.5009C24.9011 21.4552 24.1233 21.4772 23.5662 21.5107C23.2869 21.5275 23.0609 21.5473 22.9015 21.5634C22.8217 21.5714 22.7584 21.5785 22.7132 21.5838C22.6906 21.5865 22.6725 21.5888 22.6591 21.5904C22.6524 21.5913 22.6469 21.592 22.6426 21.5926C22.6404 21.5928 22.6386 21.5931 22.637 21.5933C22.6363 21.5934 22.6356 21.5935 22.6349 21.5936C22.6346 21.5936 22.6342 21.5937 22.6341 21.5937C22.6337 21.5938 22.6333 21.5938 22.8332 23.0804ZM28.6681 28.4643C27.3126 27.6499 26.2015 26.2287 25.4016 24.8935C25.0116 24.2426 24.7165 23.6476 24.5199 23.2175C24.422 23.0032 24.3493 22.8316 24.3024 22.7169C24.2789 22.6595 24.2619 22.6165 24.2514 22.5896C24.2462 22.5761 24.2426 22.5667 24.2407 22.5615C24.2397 22.5589 24.2391 22.5574 24.2389 22.557C24.2389 22.5568 24.2389 22.5568 24.239 22.5572C24.2391 22.5574 24.2392 22.5576 24.2393 22.5579C24.2393 22.558 24.2394 22.5583 24.2395 22.5584C24.2396 22.5587 24.2397 22.559 22.8332 23.0804C21.4268 23.6018 21.4269 23.6022 21.427 23.6025C21.4271 23.6027 21.4272 23.6031 21.4273 23.6034C21.4276 23.604 21.4278 23.6046 21.4281 23.6054C21.4286 23.6068 21.4293 23.6086 21.43 23.6106C21.4316 23.6147 21.4335 23.6199 21.4359 23.6262C21.4407 23.6388 21.4472 23.6558 21.4555 23.6771C21.472 23.7195 21.4954 23.7787 21.5258 23.8529C21.5865 24.0012 21.6751 24.21 21.7914 24.4645C22.0234 24.9721 22.3691 25.6692 22.8281 26.4354C23.7264 27.9346 25.1464 29.8482 27.1229 31.0358L28.6681 28.4643ZM36.161 31.0886C35.9611 29.602 35.9614 29.6019 35.9618 29.6019C35.9618 29.6019 35.9621 29.6018 35.9623 29.6018C35.9626 29.6018 35.9629 29.6017 35.9631 29.6017C35.9634 29.6017 35.9635 29.6017 35.9633 29.6017C35.9628 29.6017 35.9612 29.6019 35.9584 29.6023C35.953 29.603 35.9429 29.6042 35.9286 29.6059C35.8999 29.6093 35.854 29.6145 35.7923 29.6207C35.669 29.6331 35.4834 29.6495 35.2481 29.6637C34.7761 29.692 34.1122 29.7108 33.3544 29.672C31.8 29.5926 30.0235 29.2787 28.6681 28.4643L27.1229 31.0358C29.0995 32.2234 31.4558 32.5789 33.2011 32.6681C34.0932 32.7137 34.871 32.6918 35.4281 32.6583C35.7074 32.6415 35.9333 32.6217 36.0928 32.6056C36.1725 32.5976 36.2358 32.5905 36.281 32.5852C36.3037 32.5825 36.3218 32.5802 36.3351 32.5786C36.3418 32.5777 36.3474 32.577 36.3517 32.5764C36.3538 32.5761 36.3557 32.5759 36.3572 32.5757C36.358 32.5756 36.3587 32.5755 36.3593 32.5754C36.3596 32.5754 36.3601 32.5753 36.3602 32.5753C36.3606 32.5752 36.361 32.5752 36.161 31.0886ZM20.1679 21.4785C21.5744 20.9572 21.5742 20.9568 21.5741 20.9564C21.574 20.9563 21.5739 20.9559 21.5738 20.9556C21.5736 20.955 21.5733 20.9543 21.573 20.9536C21.5725 20.9521 21.5718 20.9504 21.5711 20.9484C21.5695 20.9443 21.5676 20.9391 21.5652 20.9328C21.5604 20.9202 21.5539 20.9031 21.5456 20.8819C21.5291 20.8395 21.5057 20.7803 21.4753 20.706C21.4146 20.5577 21.3261 20.349 21.2098 20.0945C20.9778 19.5868 20.632 18.8898 20.173 18.1236C19.2748 16.6244 17.8547 14.7108 15.8782 13.5232L14.3331 16.0947C15.6885 16.9091 16.7996 18.3303 17.5995 19.6654C17.9895 20.3164 18.2846 20.9113 18.4812 21.3414C18.5792 21.5558 18.6518 21.7273 18.6988 21.8421C18.7222 21.8994 18.7392 21.9424 18.7497 21.9694C18.7549 21.9828 18.7585 21.9923 18.7605 21.9974C18.7614 22 18.762 22.0015 18.7622 22.002C18.7623 22.0022 18.7622 22.0021 18.7621 22.0018C18.7621 22.0016 18.762 22.0014 18.7618 22.0011C18.7618 22.0009 18.7617 22.0006 18.7617 22.0006C18.7615 22.0003 18.7614 21.9999 20.1679 21.4785ZM11.1298 21.4258C13.1063 22.6134 15.4626 22.9688 17.208 23.0581C18.1 23.1037 18.8778 23.0817 19.4349 23.0482C19.7143 23.0315 19.9402 23.0117 20.0996 22.9956C20.1794 22.9876 20.2427 22.9805 20.2879 22.9751C20.3105 22.9724 20.3286 22.9702 20.342 22.9685C20.3487 22.9677 20.3542 22.967 20.3585 22.9664C20.3607 22.9661 20.3625 22.9659 20.3641 22.9657C20.3649 22.9656 20.3656 22.9655 20.3662 22.9654C20.3665 22.9653 20.3669 22.9653 20.3671 22.9653C20.3675 22.9652 20.3678 22.9652 20.1679 21.4785C19.968 19.9919 19.9683 19.9919 19.9686 19.9918C19.9687 19.9918 19.969 19.9918 19.9692 19.9918C19.9695 19.9917 19.9697 19.9917 19.9699 19.9917C19.9703 19.9916 19.9703 19.9916 19.9701 19.9916C19.9696 19.9917 19.968 19.9919 19.9653 19.9923C19.9598 19.993 19.9498 19.9942 19.9355 19.9959C19.9068 19.9993 19.8608 20.0045 19.7992 20.0107C19.6758 20.0231 19.4902 20.0395 19.255 20.0536C18.7829 20.082 18.1191 20.1008 17.3612 20.062C15.8068 19.9825 14.0303 19.6687 12.6749 18.8543L11.1298 21.4258ZM6.84007 13.4704C5.4336 13.9918 5.43373 13.9921 5.43387 13.9925C5.43393 13.9926 5.43407 13.993 5.43418 13.9933C5.4344 13.9939 5.43465 13.9946 5.43492 13.9953C5.43547 13.9968 5.43613 13.9985 5.43689 14.0006C5.43842 14.0047 5.44038 14.0099 5.44277 14.0162C5.44756 14.0288 5.45408 14.0458 5.46234 14.067C5.47884 14.1095 5.50228 14.1687 5.53264 14.2429C5.59333 14.3912 5.68191 14.6 5.79822 14.8545C6.0302 15.3621 6.37593 16.0592 6.835 16.8254C7.73321 18.3245 9.15328 20.2382 11.1298 21.4258L12.6749 18.8543C11.3195 18.0398 10.2084 16.6187 9.40845 15.2835C9.01845 14.6326 8.72335 14.0376 8.52678 13.6075C8.42881 13.3931 8.35617 13.2216 8.30921 13.1068C8.28576 13.0495 8.26877 13.0065 8.2583 12.9796C8.25306 12.9661 8.24946 12.9567 8.2475 12.9515C8.24652 12.9489 8.24595 12.9474 8.24579 12.947C8.24571 12.9468 8.24573 12.9468 8.24585 12.9472C8.24592 12.9473 8.24601 12.9476 8.24612 12.9479C8.24618 12.948 8.24628 12.9483 8.24631 12.9484C8.24642 12.9487 8.24654 12.949 6.84007 13.4704ZM15.8782 13.5231C13.9017 12.3355 11.5453 11.9801 9.79997 11.8908C8.90792 11.8452 8.13013 11.8672 7.57303 11.9007C7.29371 11.9175 7.0678 11.9373 6.90835 11.9533C6.82858 11.9614 6.76527 11.9685 6.72007 11.9738C6.69746 11.9765 6.67936 11.9787 6.66598 11.9804C6.65928 11.9813 6.65377 11.982 6.64945 11.9825C6.6473 11.9828 6.64544 11.9831 6.64388 11.9833C6.64311 11.9834 6.64241 11.9835 6.64178 11.9835C6.64147 11.9836 6.64106 11.9836 6.6409 11.9837C6.64051 11.9837 6.64013 11.9838 6.84007 13.4704C7.04001 14.957 7.03967 14.957 7.03936 14.9571C7.03927 14.9571 7.03898 14.9571 7.03881 14.9572C7.03849 14.9572 7.03824 14.9572 7.03806 14.9573C7.0377 14.9573 7.03764 14.9573 7.03787 14.9573C7.03832 14.9572 7.03993 14.957 7.04267 14.9567C7.04816 14.956 7.05817 14.9547 7.07251 14.953C7.10121 14.9496 7.14715 14.9444 7.20879 14.9382C7.33216 14.9258 7.51772 14.9094 7.75299 14.8953C8.22505 14.8669 8.88891 14.8482 9.64675 14.8869C11.2012 14.9664 12.9776 15.2802 14.3331 16.0947L15.8782 13.5231ZM19.8907 31.6088C19.8907 30.0275 20.5367 28.3431 21.2691 26.9698C21.6262 26.3003 21.9842 25.7409 22.2516 25.3508C22.3849 25.1565 22.4946 25.0059 22.5687 24.9065C22.6058 24.8569 22.6339 24.8202 22.6516 24.7973C22.6604 24.7859 22.6667 24.7779 22.6701 24.7736C22.6718 24.7714 22.6728 24.7702 22.6731 24.7698C22.6732 24.7696 22.6732 24.7697 22.673 24.77C22.6729 24.7701 22.6727 24.7703 22.6725 24.7705C22.6724 24.7707 22.6722 24.7709 22.6722 24.771C22.672 24.7712 22.6717 24.7715 21.5004 23.8344C20.3291 22.8974 20.3289 22.8977 20.3287 22.898C20.3286 22.8981 20.3283 22.8985 20.3281 22.8987C20.3277 22.8992 20.3273 22.8997 20.3268 22.9004C20.3258 22.9016 20.3246 22.903 20.3233 22.9048C20.3206 22.9082 20.3171 22.9125 20.313 22.9178C20.3046 22.9284 20.2934 22.9428 20.2794 22.9608C20.2516 22.9968 20.2129 23.0474 20.1649 23.1116C20.069 23.24 19.9357 23.4235 19.7775 23.6543C19.4618 24.1145 19.0424 24.7699 18.622 25.558C17.7996 27.1001 16.8907 29.3029 16.8907 31.6088H19.8907ZM21.5004 39.3831C22.6717 38.4461 22.672 38.4464 22.6722 38.4466C22.6722 38.4467 22.6724 38.4469 22.6725 38.447C22.6727 38.4473 22.6729 38.4475 22.673 38.4476C22.6732 38.4479 22.6732 38.448 22.6731 38.4478C22.6728 38.4474 22.6718 38.4461 22.6701 38.444C22.6667 38.4396 22.6604 38.4317 22.6516 38.4203C22.6339 38.3974 22.6058 38.3607 22.5687 38.3111C22.4946 38.2117 22.3849 38.0611 22.2516 37.8667C21.9842 37.4767 21.6262 36.9173 21.2691 36.2478C20.5367 34.8744 19.8907 33.1901 19.8907 31.6088H16.8907C16.8907 33.9147 17.7996 36.1175 18.622 37.6595C19.0424 38.4477 19.4618 39.103 19.7775 39.5633C19.9357 39.7941 20.069 39.9775 20.1649 40.1059C20.2129 40.1702 20.2516 40.2208 20.2794 40.2568C20.2934 40.2748 20.3046 40.2891 20.313 40.2997C20.3171 40.305 20.3206 40.3094 20.3233 40.3128C20.3246 40.3145 20.3258 40.316 20.3268 40.3172C20.3273 40.3178 20.3277 40.3184 20.3281 40.3189C20.3283 40.3191 20.3286 40.3194 20.3287 40.3196C20.3289 40.3199 20.3291 40.3202 21.5004 39.3831ZM23.1102 31.6088C23.1102 33.1901 22.4642 34.8744 21.7318 36.2478C21.3747 36.9173 21.0167 37.4767 20.7492 37.8667C20.616 38.0611 20.5063 38.2117 20.4321 38.3111C20.3951 38.3607 20.367 38.3974 20.3493 38.4203C20.3404 38.4317 20.3342 38.4396 20.3308 38.444C20.3291 38.4461 20.3281 38.4474 20.3278 38.4478C20.3276 38.448 20.3277 38.4479 20.3279 38.4476C20.328 38.4475 20.3282 38.4473 20.3284 38.447C20.3285 38.4469 20.3287 38.4467 20.3287 38.4466C20.3289 38.4464 20.3291 38.4461 21.5004 39.3831C22.6717 40.3202 22.672 40.3199 22.6722 40.3196C22.6723 40.3194 22.6726 40.3191 22.6728 40.3189C22.6732 40.3184 22.6736 40.3178 22.6741 40.3172C22.6751 40.316 22.6762 40.3145 22.6776 40.3128C22.6803 40.3094 22.6838 40.305 22.6879 40.2997C22.6963 40.2891 22.7075 40.2748 22.7215 40.2568C22.7493 40.2208 22.788 40.1702 22.836 40.1059C22.9319 39.9775 23.0652 39.7941 23.2234 39.5633C23.5391 39.103 23.9585 38.4477 24.3788 37.6595C25.2013 36.1175 26.1102 33.9147 26.1102 31.6088H23.1102ZM21.5004 23.8344C20.3291 24.7715 20.3289 24.7712 20.3287 24.771C20.3287 24.7709 20.3285 24.7707 20.3284 24.7705C20.3282 24.7703 20.328 24.7701 20.3279 24.77C20.3277 24.7697 20.3276 24.7696 20.3278 24.7698C20.3281 24.7702 20.3291 24.7714 20.3308 24.7736C20.3342 24.7779 20.3404 24.7859 20.3493 24.7973C20.367 24.8202 20.3951 24.8569 20.4321 24.9065C20.5063 25.0059 20.616 25.1565 20.7492 25.3508C21.0167 25.7409 21.3747 26.3003 21.7318 26.9698C22.4642 28.3431 23.1102 30.0275 23.1102 31.6088H26.1102C26.1102 29.3029 25.2013 27.1001 24.3788 25.558C23.9585 24.7699 23.5391 24.1145 23.2234 23.6543C23.0652 23.4235 22.9319 23.24 22.836 23.1116C22.788 23.0474 22.7493 22.9968 22.7215 22.9608C22.7075 22.9428 22.6963 22.9284 22.6879 22.9178C22.6838 22.9125 22.6803 22.9082 22.6776 22.9048C22.6762 22.903 22.6751 22.9016 22.6741 22.9004C22.6736 22.8997 22.6732 22.8992 22.6728 22.8987C22.6726 22.8985 22.6723 22.8981 22.6722 22.898C22.672 22.8977 22.6717 22.8974 21.5004 23.8344Z" fill="white" mask="url(#path-2-outside-1)"/>
<path d="M64.21 14V35H61.21V25.64H49.15V35H46.15V14H49.15V23.03H61.21V14H64.21ZM84.4457 27.14C84.4457 27.36 84.4257 27.65 84.3857 28.01H71.4857C71.6657 29.41 72.2757 30.54 73.3157 31.4C74.3757 32.24 75.6857 32.66 77.2457 32.66C79.1457 32.66 80.6757 32.02 81.8357 30.74L83.4257 32.6C82.7057 33.44 81.8057 34.08 80.7257 34.52C79.6657 34.96 78.4757 35.18 77.1557 35.18C75.4757 35.18 73.9857 34.84 72.6857 34.16C71.3857 33.46 70.3757 32.49 69.6557 31.25C68.9557 30.01 68.6057 28.61 68.6057 27.05C68.6057 25.51 68.9457 24.12 69.6257 22.88C70.3257 21.64 71.2757 20.68 72.4757 20C73.6957 19.3 75.0657 18.95 76.5857 18.95C78.1057 18.95 79.4557 19.3 80.6357 20C81.8357 20.68 82.7657 21.64 83.4257 22.88C84.1057 24.12 84.4457 25.54 84.4457 27.14ZM76.5857 21.38C75.2057 21.38 74.0457 21.8 73.1057 22.64C72.1857 23.48 71.6457 24.58 71.4857 25.94H81.6857C81.5257 24.6 80.9757 23.51 80.0357 22.67C79.1157 21.81 77.9657 21.38 76.5857 21.38ZM93.7954 18.95C95.9954 18.95 97.6754 19.49 98.8354 20.57C100.015 21.65 100.605 23.26 100.605 25.4V35H97.8754V32.9C97.3954 33.64 96.7054 34.21 95.8054 34.61C94.9254 34.99 93.8754 35.18 92.6554 35.18C90.8754 35.18 89.4454 34.75 88.3654 33.89C87.3054 33.03 86.7754 31.9 86.7754 30.5C86.7754 29.1 87.2854 27.98 88.3054 27.14C89.3254 26.28 90.9454 25.85 93.1654 25.85H97.7254V25.28C97.7254 24.04 97.3654 23.09 96.6454 22.43C95.9254 21.77 94.8654 21.44 93.4654 21.44C92.5254 21.44 91.6054 21.6 90.7054 21.92C89.8054 22.22 89.0454 22.63 88.4254 23.15L87.2254 20.99C88.0454 20.33 89.0254 19.83 90.1654 19.49C91.3054 19.13 92.5154 18.95 93.7954 18.95ZM93.1354 32.96C94.2354 32.96 95.1854 32.72 95.9854 32.24C96.7854 31.74 97.3654 31.04 97.7254 30.14V27.92H93.2854C90.8454 27.92 89.6254 28.74 89.6254 30.38C89.6254 31.18 89.9354 31.81 90.5554 32.27C91.1754 32.73 92.0354 32.96 93.1354 32.96ZM105.935 12.74H108.815V35H105.935V12.74ZM123.635 34.07C123.215 34.43 122.695 34.71 122.075 34.91C121.455 35.09 120.815 35.18 120.155 35.18C118.555 35.18 117.315 34.75 116.435 33.89C115.555 33.03 115.115 31.8 115.115 30.2V21.47H112.415V19.1H115.115V15.62H117.995V19.1H122.555V21.47H117.995V30.08C117.995 30.94 118.205 31.6 118.625 32.06C119.065 32.52 119.685 32.75 120.485 32.75C121.365 32.75 122.115 32.5 122.735 32L123.635 34.07ZM135.607 18.95C137.627 18.95 139.227 19.54 140.407 20.72C141.607 21.88 142.207 23.59 142.207 25.85V35H139.327V26.18C139.327 24.64 138.957 23.48 138.217 22.7C137.477 21.92 136.417 21.53 135.037 21.53C133.477 21.53 132.247 21.99 131.347 22.91C130.447 23.81 129.997 25.11 129.997 26.81V35H127.117V12.74H129.997V21.35C130.597 20.59 131.377 20 132.337 19.58C133.317 19.16 134.407 18.95 135.607 18.95Z" fill="#218DF7"/>
<path d="M152.127 16.61H144.927V14H162.297V16.61H155.097V35H152.127V16.61ZM167.523 21.77C168.023 20.85 168.763 20.15 169.743 19.67C170.723 19.19 171.913 18.95 173.313 18.95V21.74C173.153 21.72 172.933 21.71 172.653 21.71C171.093 21.71 169.863 22.18 168.963 23.12C168.083 24.04 167.643 25.36 167.643 27.08V35H164.763V19.1H167.523V21.77ZM176.863 19.1H179.743V35H176.863V19.1ZM178.303 16.04C177.743 16.04 177.273 15.86 176.893 15.5C176.533 15.14 176.353 14.7 176.353 14.18C176.353 13.66 176.533 13.22 176.893 12.86C177.273 12.48 177.743 12.29 178.303 12.29C178.863 12.29 179.323 12.47 179.683 12.83C180.063 13.17 180.253 13.6 180.253 14.12C180.253 14.66 180.063 15.12 179.683 15.5C179.323 15.86 178.863 16.04 178.303 16.04ZM191.032 18.95C193.232 18.95 194.912 19.49 196.072 20.57C197.252 21.65 197.842 23.26 197.842 25.4V35H195.112V32.9C194.632 33.64 193.942 34.21 193.042 34.61C192.162 34.99 191.112 35.18 189.892 35.18C188.112 35.18 186.682 34.75 185.602 33.89C184.542 33.03 184.012 31.9 184.012 30.5C184.012 29.1 184.522 27.98 185.542 27.14C186.562 26.28 188.182 25.85 190.402 25.85H194.962V25.28C194.962 24.04 194.602 23.09 193.882 22.43C193.162 21.77 192.102 21.44 190.702 21.44C189.762 21.44 188.842 21.6 187.942 21.92C187.042 22.22 186.282 22.63 185.662 23.15L184.462 20.99C185.282 20.33 186.262 19.83 187.402 19.49C188.542 19.13 189.752 18.95 191.032 18.95ZM190.372 32.96C191.472 32.96 192.422 32.72 193.222 32.24C194.022 31.74 194.602 31.04 194.962 30.14V27.92H190.522C188.082 27.92 186.862 28.74 186.862 30.38C186.862 31.18 187.172 31.81 187.792 32.27C188.412 32.73 189.272 32.96 190.372 32.96ZM203.171 12.74H206.051V35H203.171V12.74ZM216.11 35.18C214.81 35.18 213.56 35.01 212.36 34.67C211.16 34.31 210.22 33.86 209.54 33.32L210.74 31.04C211.44 31.54 212.29 31.94 213.29 32.24C214.29 32.54 215.3 32.69 216.32 32.69C218.84 32.69 220.1 31.97 220.1 30.53C220.1 30.05 219.93 29.67 219.59 29.39C219.25 29.11 218.82 28.91 218.3 28.79C217.8 28.65 217.08 28.5 216.14 28.34C214.86 28.14 213.81 27.91 212.99 27.65C212.19 27.39 211.5 26.95 210.92 26.33C210.34 25.71 210.05 24.84 210.05 23.72C210.05 22.28 210.65 21.13 211.85 20.27C213.05 19.39 214.66 18.95 216.68 18.95C217.74 18.95 218.8 19.08 219.86 19.34C220.92 19.6 221.79 19.95 222.47 20.39L221.24 22.67C219.94 21.83 218.41 21.41 216.65 21.41C215.43 21.41 214.5 21.61 213.86 22.01C213.22 22.41 212.9 22.94 212.9 23.6C212.9 24.12 213.08 24.53 213.44 24.83C213.8 25.13 214.24 25.35 214.76 25.49C215.3 25.63 216.05 25.79 217.01 25.97C218.29 26.19 219.32 26.43 220.1 26.69C220.9 26.93 221.58 27.35 222.14 27.95C222.7 28.55 222.98 29.39 222.98 30.47C222.98 31.91 222.36 33.06 221.12 33.92C219.9 34.76 218.23 35.18 216.11 35.18Z" fill="#5CC8F4"/>
</svg>
